HIERARCHY
ROOT Hips
{
   OFFSET 0.00000 0.00000 0.00000
   CHANNELS 6 Xposition Yposition Zposition Zrotation Xrotation Yrotation
   JOINT Spine
   {
      OFFSET 0.000000 10.701450 0.000000
      CHANNELS 3 Zrotation Xrotation Yrotation
      JOINT Spine1
      {
         OFFSET -0.000000 23.091659 0.114894
         CHANNELS 3 Zrotation Xrotation Yrotation
         JOINT HEad
         {
            OFFSET 0.000000 7.860744 0.010206
            CHANNELS 3 Zrotation Xrotation Yrotation
            End Site
            {
               OFFSET -0.261000 11.496780 2.262555
            }
         }
         JOINT LeftShoulder1
         {
            OFFSET 8.091000 -0.326025 -0.198000
            CHANNELS 3 Zrotation Xrotation Yrotation
            JOINT LeftArm
            {
               OFFSET 9.254430 -0.003042 0.289908
               CHANNELS 3 Zrotation Xrotation Yrotation
               JOINT LeftForeArm
               {
                  OFFSET 29.490208 0.089226 -1.281906
                  CHANNELS 3 Zrotation Xrotation Yrotation
                  JOINT LeftHand
                  {
                     OFFSET 24.807870 0.076824 0.919944
                     CHANNELS 3 Zrotation Xrotation Yrotation
                     End Site
                     {
                        OFFSET 15.069871 -0.540000 1.352619
                     }
                  }
               }
            }
         }
         JOINT RightShoulder
         {
            OFFSET -8.091000 -0.326025 -0.198000
            CHANNELS 3 Zrotation Xrotation Yrotation
            JOINT RightArm
            {
               OFFSET -9.254430 -0.003042 0.289908
               CHANNELS 3 Zrotation Xrotation Yrotation
               JOINT RightForeArm
               {
                  OFFSET -29.607386 0.089226 -1.281906
                  CHANNELS 3 Zrotation Xrotation Yrotation
                  JOINT RightHand
                  {
                     OFFSET -24.742889 0.076824 0.919944
                     CHANNELS 3 Zrotation Xrotation Yrotation
                     End Site
                     {
                        OFFSET -14.968080 -0.540000 1.352619
                     }
                  }
               }
            }
         }
      }
   }
   JOINT LeftUpLeg
   {
      OFFSET 8.051219 -7.800363 0.091485
      CHANNELS 3 Zrotation Xrotation Yrotation
      JOINT LeftLeg
      {
         OFFSET 0.000000 -39.980428 1.235430
         CHANNELS 3 Zrotation Xrotation Yrotation
         JOINT LeftFoot
         {
            OFFSET -0.228195 -37.883157 -1.314531
            CHANNELS 3 Zrotation Xrotation Yrotation
            JOINT LeftToes
            {
               OFFSET -0.036000 -3.973581 7.649189
               CHANNELS 3 Zrotation Xrotation Yrotation
               End Site
               {
                  OFFSET 0.072000 -0.042705 8.801811
               }
            }
         }
      }
   }
   JOINT RightUpLeg
   {
      OFFSET -8.051219 -7.800363 0.091485
      CHANNELS 3 Zrotation Xrotation Yrotation
      JOINT RightLeg
      {
         OFFSET 0.000000 -39.980428 1.235430
         CHANNELS 3 Zrotation Xrotation Yrotation
         JOINT RightFoot
         {
            OFFSET 0.228195 -37.883157 -1.314531
            CHANNELS 3 Zrotation Xrotation Yrotation
            JOINT RightToes
            {
               OFFSET 0.036000 -3.973581 7.649189
               CHANNELS 3 Zrotation Xrotation Yrotation
               End Site
               {
                  OFFSET -0.072000 -0.123705 8.801811
               }
            }
         }
      }
   }
}
MOTION
Frames: 13
Frame Time: 0.016670
43.199133 71.353868 -115.464619 4.057670 -12.191083 -26.478125 -25.162770 48.756588 15.966597 0.393017 0.678464 -0.986772 -25.685983 -6.184553 14.788574 -10.346209 6.884053 -2.004811 -158.191006 -61.830328 -125.088030 -31.622874 78.744780 -89.417599 6.526348 -14.583294 -10.040040 -2.554747 -4.984986 1.800422 82.675738 -12.704282 65.207112 23.544253 55.712207 100.573825 -14.372289 10.800834 -12.443600 18.323123 -30.820976 11.547772 22.418394 47.816771 -10.494939 -10.050148 25.326536 9.013922 -20.663861 -16.774243 -22.868701 -31.902847 -30.785783 -13.297694 -25.207430 63.491547 53.477229 16.538243 16.528609 -16.092399 -23.353323 -51.818627 -11.134053
43.500676 68.936480 -116.378287 3.452753 -12.553112 -26.759383 -31.744161 53.187742 22.288852 0.670933 0.163850 -0.348308 -23.185297 -9.418411 13.658791 -8.803096 2.485428 -2.284768 -154.487541 -65.269527 -122.668995 -42.463303 77.489671 -82.742817 14.350823 4.533442 -10.923836 -0.583563 -10.180541 1.638805 75.306462 -17.452373 56.250655 23.999046 53.656689 102.369058 -13.746698 7.308203 7.545356 18.287398 -31.836007 10.878255 25.080608 48.943121 -12.271467 -6.970436 25.208452 8.606177 -26.355115 -33.004847 -18.050373 -31.497714 -34.675539 -13.559999 -35.518906 66.972361 64.411710 20.422027 16.241029 -15.932231 -27.814806 -53.199165 -11.285740
43.835606 66.619009 -117.542952 2.827481 -12.236299 -26.137548 -37.992254 56.810413 27.784320 0.473008 -0.373379 -0.250618 -19.889881 -12.679837 12.421553 -7.670277 -1.696357 -2.809552 -151.145092 -67.363492 -120.704442 -48.060001 76.903729 -80.280029 11.128262 -1.633252 -8.924767 1.319161 -14.506222 1.245759 69.459418 -19.825787 49.565993 23.549311 52.854118 103.824708 -11.447989 12.028513 6.620931 18.417335 -34.046260 9.443185 27.472839 49.891513 -14.978453 -4.242668 25.192664 7.746873 -28.984714 -25.474500 -20.081219 -31.369529 -39.599036 -13.886715 -48.682641 70.925436 77.583729 24.611385 16.139559 -15.980713 -32.626547 -54.499859 -11.160149
44.216637 63.989529 -118.876179 2.730837 -10.771060 -23.577518 -41.772624 59.731650 30.696127 0.436971 -1.225965 -0.174868 -15.767458 -16.051819 11.107345 -6.674113 -5.545272 -3.263953 -148.108950 -69.021111 -119.301179 -50.096832 76.288760 -79.581512 15.750000 7.739244 -10.013786 3.464082 -18.216391 1.367937 65.850721 -20.641836 44.537416 22.691089 52.575719 105.566714 -10.409819 8.996104 14.949573 17.973146 -38.258977 6.837313 30.033561 51.163762 -18.332856 -1.662257 25.139111 6.888098 -34.509831 -27.798750 -18.985160 -33.527828 -44.732975 -16.032172 -66.721598 75.212568 94.317071 29.033894 15.669455 -16.332374 -37.518916 -55.527286 -11.483481
44.566373 61.477546 -120.252808 2.631370 -9.506372 -21.046651 -47.698387 62.253923 35.687363 0.124790 -1.779578 -0.253340 -11.613100 -18.964883 9.786184 -5.364216 -9.104416 -3.824199 -145.020639 -69.735316 -118.604500 -50.430367 76.426579 -80.540423 14.126261 2.989254 -8.940192 6.855423 -21.693627 1.514959 63.641114 -20.388774 41.146965 22.013869 52.309847 107.736228 -9.669733 11.815552 12.801325 17.657666 -42.918907 4.768685 33.333519 52.445269 -22.974248 0.308991 24.972401 6.028395 -38.196545 -25.752378 -19.284969 -36.225759 -49.006156 -16.460484 -89.950627 79.444826 115.089616 33.766983 14.766316 -16.355165 -42.081342 -56.508026 -11.836453
44.876270 59.053954 -121.603602 2.768645 -8.367143 -18.687136 -52.347984 64.010545 39.609708 -0.672215 -2.234017 -0.356698 -8.368223 -20.510725 8.754786 -5.139728 -11.590464 -4.418418 -142.026353 -69.829696 -118.402941 -49.356108 76.444345 -81.916713 16.690974 7.733860 -9.212273 9.757855 -24.020882 1.925581 62.745492 -19.708900 38.951227 21.394113 51.967057 109.831477 -9.419616 9.628096 16.235187 17.016457 -47.849409 3.107313 36.983333 53.728119 -28.388979 2.012838 24.584136 5.287862 -41.892593 -25.741660 -17.933189 -38.442781 -51.997247 -15.438454 -115.507815 81.770909 137.675467 38.870166 13.615745 -15.590977 -46.544717 -57.874754 -11.881077
45.135497 56.414661 -122.804430 2.921106 -7.413887 -16.352217 -55.515422 65.035907 42.413750 -0.926478 -2.306308 -0.290047 -5.822837 -21.066959 7.765004 -5.410593 -12.925967 -5.133727 -139.052037 -69.496205 -117.929541 -47.612815 76.800389 -83.734998 16.215822 4.248541 -8.422009 12.394657 -25.666377 3.151282 60.822800 -15.144565 39.189815 22.163057 52.629787 111.432330 -11.955088 14.311551 12.248968 17.975473 -53.562931 3.722869 39.791408 56.816693 -35.752963 5.215985 24.027519 4.530681 -45.397488 -25.965543 -17.339236 -39.478828 -54.250895 -13.493313 -139.162468 81.613220 158.145312 44.391312 12.429869 -14.477604 -51.403741 -59.057627 -12.899289
45.325403 53.768624 -123.818319 2.929863 -6.408444 -13.990747 -57.238976 65.335008 44.051373 -0.672474 -2.513360 -0.092181 -4.012283 -20.983323 6.792379 -5.756712 -13.409938 -6.111880 -136.600737 -69.048151 -117.228968 -45.466349 76.904740 -85.710603 17.461413 6.764734 -8.380774 14.820020 -26.570705 4.378258 58.070371 -8.960557 41.164358 21.090239 48.915294 111.661579 -14.024446 14.794034 12.371165 21.771682 -59.670008 7.833508 43.132628 60.955805 -45.430464 9.523466 23.138912 3.810382 -48.669759 -27.443674 -16.438317 -40.443777 -56.021765 -11.931682 -154.572386 79.926915 170.269731 50.238247 11.124190 -13.405167 -56.527646 -60.373442 -13.600841
45.478224 51.173057 -124.566973 3.046081 -5.795637 -12.058723 -57.576924 65.294006 44.508443 -0.288357 -2.105746 0.102611 -4.431889 -21.386338 5.487253 -6.211272 -13.181114 -6.676460 -134.353496 -68.795305 -116.155440 -38.716313 72.226969 -90.364789 12.824055 1.590532 -8.298003 9.265646 -26.825467 13.622844 62.541201 -14.693354 37.118414 19.749890 46.660304 112.685458 -14.638373 16.221527 9.545714 27.698473 -65.434367 14.982430 48.889411 65.832990 -57.431564 14.530661 22.548855 3.022506 -51.892413 -28.665040 -15.761479 -41.602371 -57.485502 -10.491078 -163.424256 76.967086 175.836349 56.388092 9.678843 -12.395214 -62.117552 -61.855204 -14.851352
45.709428 48.509936 -124.909685 3.036455 -4.935096 -10.730319 -57.365686 65.292107 44.071546 -0.660948 -2.283691 0.220399 -6.161999 -22.140511 3.802491 -7.139852 -12.533817 -7.378799 -131.585302 -68.750861 -115.010946 -34.906460 70.075214 -93.818037 11.925779 1.360459 -8.522967 11.564364 -26.841583 13.606350 61.689340 -12.050995 37.159180 19.370705 44.790601 113.966235 -2.223119 3.539574 15.745297 38.335424 -70.558463 27.107718 59.475498 70.665608 -73.176809 20.091947 22.096038 2.323806 -55.254048 -30.132653 -15.105848 -43.247057 -58.994140 -9.339252 -168.298894 74.042871 177.486086 62.778953 8.014831 -11.330969 -95.646281 -61.120248 -44.502750
46.001763 46.049241 -124.983452 3.268272 -4.527725 -9.383977 -56.174211 64.343558 43.169569 -0.660669 -2.215132 0.371597 -7.817517 -21.995291 2.126481 -7.957898 -11.576934 -7.888320 -129.510236 -68.402862 -113.641370 -32.269823 68.937775 -96.449730 11.389297 -1.127276 -8.392008 12.760244 -26.590992 13.418293 61.481169 -10.511652 37.404568 19.233418 43.739217 114.824195 -9.395427 12.431096 8.465966 55.240357 -73.801717 45.685025 72.533918 73.702741 -90.854507 24.425718 21.796215 1.328064 -58.278125 -30.384537 -14.241606 -44.924937 -60.128293 -8.210159 -170.483981 70.731458 177.447468 68.967480 6.807490 -10.481122 -87.541394 -64.197870 -31.081749
46.357064 43.766159 -124.816359 3.524386 -4.004239 -8.089765 -54.320327 62.816806 41.872690 -0.501703 -1.774795 0.450843 -9.857843 -22.594066 0.364846 -8.658033 -10.008179 -8.372020 -127.857917 -67.914572 -112.158038 -30.542605 68.935672 -98.829402 12.189186 -0.917714 -8.532779 13.590054 -26.290318 12.966753 61.249093 -9.574359 38.141679 19.135294 43.660605 115.980929 -5.046986 6.341636 11.778721 75.777773 -74.660566 67.838299 85.701539 75.538429 -107.750728 28.097505 21.585623 0.173130 -60.772325 -30.200784 -13.107662 -46.676430 -61.206561 -6.733055 -171.223198 67.665933 176.496173 74.957242 5.915048 -10.115864 -98.203995 -64.470825 -37.337827
46.912517 41.755556 -124.324205 3.768914 -3.571792 -6.739546 -52.957517 59.967941 41.046824 -0.291290 -0.793151 0.072677 -10.953006 -23.763312 -2.065058 -16.371248 -14.180887 -6.135195 -114.800877 -62.138076 -105.798387 -30.683655 71.458593 -95.043018 11.995869 -1.758194 -8.955266 7.961363 -31.863085 17.342651 67.737800 -13.307532 34.504377 18.939770 46.440536 117.535821 -12.101650 11.932838 5.228504 93.170809 -73.442442 87.466890 104.090744 76.909515 -128.263740 32.689965 21.516607 -1.129741 -63.490693 -30.397163 -13.202375 -47.462271 -60.758556 -4.414119 -171.180072 65.853453 174.883961 80.761017 5.305098 -10.060328 -99.192228 -65.770856 -33.164817
